<?xml version="1.0" encoding="utf-8"?>
<!-- Generator: Adobe Illustrator 22.1.0, SVG Export Plug-In . SVG Version: 6.00 Build 0)  -->
<svg version="1.1" id="Слой_1" xmlns="http://www.w3.org/2000/svg" xmlns:xlink="http://www.w3.org/1999/xlink" x="0px" y="0px"
	 viewBox="0 0 512 512" style="enable-background:new 0 0 512 512;" xml:space="preserve">
<style type="text/css">
	.st0{fill:#4A6ABC;}
</style>
<g>
	<defs>
		<path id="SVGID_1_" d="M255.5,499c-64.9,0-125.9-25.3-171.8-71.2S12.5,320.9,12.5,256S37.8,130.1,83.7,84.2S190.6,13,255.5,13
			s125.9,25.3,171.8,71.2s71.2,106.9,71.2,171.8s-25.3,125.9-71.2,171.8S320.4,499,255.5,499z"/>
	</defs>
	<clipPath id="SVGID_2_">
		<use xlink:href="#SVGID_1_"  style="overflow:visible;"/>
	</clipPath>
	<g transform="matrix(1 0 0 1 0 -1.907349e-06)" style="clip-path:url(#SVGID_2_);">
		
			<image style="overflow:visible;" width="1832" height="766" xlink:href="../../.yandex.disk/320422807/Yandex.Disk.localized/2.Для дизайна/Элемнеты для сайта/joxi_screenshot_1492628952418.png"  transform="matrix(0.7467 0 0 0.7467 -138.0209 -30)">
		</image>
	</g>
</g>
<path class="st0" d="M284.2,214.6c-7.7-7.7-17.9-11.9-28.7-11.9c-10.9,0-21.1,4.2-28.7,11.9c-14.2,14.2-16,40.9-3.8,57.1l32.5,47
	l32.5-46.9C300.2,255.5,298.4,228.8,284.2,214.6z M255.9,257.7c-8.2,0-14.8-6.7-14.8-14.8c0-8.2,6.7-14.8,14.8-14.8
	c8.2,0,14.8,6.7,14.8,14.8S264,257.7,255.9,257.7z"/>
</svg>
